<?xml version="1.0" encoding="UTF-8" standalone="no" ?>
<!DOCTYPE svg PUBLIC "-//W3C//DTD SVG 1.1//EN" "http://www.w3.org/Graphics/SVG/1.1/DTD/svg11.dtd">
<svg xmlns="http://www.w3.org/2000/svg" xmlns:xlink="http://www.w3.org/1999/xlink" version="1.1" width="512" height="512" viewBox="0 0 512 512" xml:space="preserve">
<desc>Created with Fabric.js 3.6.6</desc>
<defs>
</defs>
<g transform="matrix(0.96 0 0 0.96 246.86 264.14)"  >
<g style=""   >
		<g transform="matrix(1 0 0 1 7.1 -22.57)"  >
<path style="stroke: none; stroke-width: 1; stroke-dasharray: none; stroke-linecap: butt; stroke-dashoffset: 0; stroke-linejoin: miter; stroke-miterlimit: 4; fill: rgb(203,152,102); fill-rule: nonzero; opacity: 1;"  transform=" translate(-407.1, -277.43)" d="M 252.95 447.85 a 20.43 20.43 0 0 1 -5.64 -6.24 a 14 14 0 0 1 -1.91 -8.22 a 16.93 16.93 0 0 1 3.06 -8 a 33.16 33.16 0 0 1 5.79 -6.28 A 74.78 74.78 0 0 1 268.54 410 a 163.48 163.48 0 0 1 15.52 -6.84 c 10.54 -3.93 21 -8.07 30.72 -13.46 a 80.83 80.83 0 0 0 7 -4.37 a 37.51 37.51 0 0 0 6.13 -5.24 c 1.75 -1.92 3.14 -4.18 3.25 -6.35 s -1.12 -4.18 -3 -5.81 a 25 25 0 0 0 -6.72 -3.91 a 61.25 61.25 0 0 0 -7.8 -2.42 c -5.41 -1.4 -10.91 -2.72 -16.38 -4.32 a 84.17 84.17 0 0 1 -16.2 -6.19 a 28.26 28.26 0 0 1 -3.86 -2.5 a 15.06 15.06 0 0 1 -3.44 -3.63 a 9 9 0 0 1 -1.51 -5.47 a 10.22 10.22 0 0 1 0.61 -2.78 a 12.88 12.88 0 0 1 1.2 -2.34 a 26.73 26.73 0 0 1 6.58 -6.56 c 2.35 -1.76 4.76 -3.33 7.19 -4.84 c 4.87 -3 9.82 -5.75 14.77 -8.46 c 9.91 -5.4 19.88 -10.59 29.63 -16.08 c 4.87 -2.75 9.68 -5.56 14.33 -8.56 A 81.88 81.88 0 0 0 359.45 280 a 23 23 0 0 0 2.41 -2.79 a 8.36 8.36 0 0 0 1.35 -2.65 a 2.13 2.13 0 0 0 -0.17 -1.7 a 5.53 5.53 0 0 0 -1.88 -1.77 a 13.15 13.15 0 0 0 -1.49 -0.83 c -0.52 -0.26 -1.1 -0.49 -1.76 -0.77 c -1.27 -0.53 -2.55 -1 -3.83 -1.53 q -3.86 -1.48 -7.8 -2.77 c -5.26 -1.74 -10.6 -3.23 -16 -4.79 c -2.72 -0.79 -5.47 -1.58 -8.29 -2.61 a 31.74 31.74 0 0 1 -4.33 -1.92 a 14.39 14.39 0 0 1 -2.29 -1.53 a 8.74 8.74 0 0 1 -2.22 -2.66 a 7.2 7.2 0 0 1 -0.78 -4 a 9.09 9.09 0 0 1 1 -3.24 a 18.93 18.93 0 0 1 3 -4.21 a 44.88 44.88 0 0 1 3.29 -3.19 c 0.56 -0.5 1.12 -1 1.68 -1.45 l 1.61 -1.33 a 84 84 0 0 0 10.88 -11.88 a 326.2 326.2 0 0 0 18.79 -27.53 c 5.88 -9.5 11.48 -19.19 16.89 -29 S 380.1 146.16 385 136.13 c 1.22 -2.51 2.42 -5 3.57 -7.54 s 2.29 -5.09 3.14 -7.45 l 0.36 -1 c 0.14 -0.38 0.26 -0.75 0.42 -1.12 c 0.29 -0.75 0.64 -1.48 1 -2.21 a 25.51 25.51 0 0 1 2.65 -4.21 a 19.15 19.15 0 0 1 3.76 -3.69 a 13.74 13.74 0 0 1 5.24 -2.42 a 12.11 12.11 0 0 1 6.12 0.25 a 14.59 14.59 0 0 1 5 2.79 a 20.59 20.59 0 0 1 3.47 3.79 a 30.33 30.33 0 0 1 2.5 4.1 c 0.35 0.7 0.7 1.39 1 2.1 l 0.46 1.05 l 0.4 1 l 1.64 3.84 l 3.39 7.67 q 6.88 15.32 14.36 30.37 c 5 10 10.18 19.94 15.69 29.65 a 274.94 274.94 0 0 0 17.9 28 A 73.36 73.36 0 0 0 487.74 233 c 0.49 0.4 1 0.8 1.48 1.15 l 1.7 1.19 a 35 35 0 0 1 3.66 3 a 17.84 17.84 0 0 1 3.32 4.08 a 10.83 10.83 0 0 1 1.14 2.94 a 8.54 8.54 0 0 1 0 3.54 a 10.27 10.27 0 0 1 -3.22 5.39 a 20.71 20.71 0 0 1 -4.15 2.91 a 49 49 0 0 1 -8.4 3.46 a 154 154 0 0 1 -16.77 4.09 l -4.15 0.81 a 9.18 9.18 0 0 0 -2.87 1.08 a 9.51 9.51 0 0 0 -4 4.7 a 12.55 12.55 0 0 0 -0.67 6.58 a 19.5 19.5 0 0 0 2.46 6.74 A 37.19 37.19 0 0 0 468 295.75 a 75 75 0 0 0 14.14 7.86 a 129.67 129.67 0 0 0 15.58 5.49 A 141.4 141.4 0 0 1 513.88 315 a 75 75 0 0 1 15.19 8.65 a 37.29 37.29 0 0 1 6.55 6.24 a 21.05 21.05 0 0 1 4.31 8.49 a 14.43 14.43 0 0 1 -1.24 9.88 a 18.08 18.08 0 0 1 -6.66 6.94 a 26.74 26.74 0 0 1 -8.56 3.33 c -2.84 0.61 -5.65 1.06 -8.44 1.49 c -5.58 0.86 -11.13 1.61 -16.52 2.77 a 53.48 53.48 0 0 0 -7.81 2.22 c -2.43 0.94 -4.81 2.22 -6 3.93 a 4.34 4.34 0 0 0 -0.77 2.82 a 8.45 8.45 0 0 0 1 3.29 a 28 28 0 0 0 4.82 6.25 a 80.74 80.74 0 0 0 12.81 10.4 c 9.29 6 19.72 10.29 30.24 14.17 c 5.27 1.95 10.59 3.79 15.85 5.86 c 2.63 1 5.24 2.14 7.79 3.39 a 37.94 37.94 0 0 1 7.28 4.51 a 11.9 11.9 0 0 1 3.63 15.57 a 34.68 34.68 0 0 1 -4.53 7.16 a 77.45 77.45 0 0 1 -5.64 6.29 a 77.31 77.31 0 0 0 5.41 -6.46 a 34.27 34.27 0 0 0 4.22 -7.21 a 12.64 12.64 0 0 0 0.88 -8 a 12.44 12.44 0 0 0 -4.71 -6.43 a 37.71 37.71 0 0 0 -7.15 -4.16 c -2.53 -1.16 -5.13 -2.18 -7.76 -3.14 c -5.26 -1.91 -10.62 -3.62 -16 -5.44 c -10.65 -3.63 -21.34 -7.64 -31.11 -13.64 a 83.84 83.84 0 0 1 -13.61 -10.49 a 31.27 31.27 0 0 1 -5.6 -6.94 a 12 12 0 0 1 -1.55 -4.68 a 8.17 8.17 0 0 1 0.19 -2.7 a 8.56 8.56 0 0 1 1.09 -2.5 a 12.1 12.1 0 0 1 3.6 -3.44 a 24.27 24.27 0 0 1 4.08 -2.08 a 57.3 57.3 0 0 1 8.36 -2.56 c 5.59 -1.31 11.19 -2.17 16.71 -3.12 c 2.76 -0.48 5.5 -1 8.15 -1.59 a 22.1 22.1 0 0 0 7 -2.87 a 13.3 13.3 0 0 0 4.82 -5.15 a 9.42 9.42 0 0 0 0.69 -6.53 a 16 16 0 0 0 -3.42 -6.33 a 33.25 33.25 0 0 0 -5.73 -5.27 a 69.74 69.74 0 0 0 -14.19 -7.8 a 135.81 135.81 0 0 0 -15.61 -5.42 a 135.53 135.53 0 0 1 -16.3 -5.51 a 81 81 0 0 1 -15.41 -8.31 a 43.39 43.39 0 0 1 -12.6 -13 a 25.53 25.53 0 0 1 -3.34 -9 a 19.13 19.13 0 0 1 1 -10 a 16.17 16.17 0 0 1 6.69 -8 a 15.88 15.88 0 0 1 5 -1.93 l 4.13 -0.84 a 147.75 147.75 0 0 0 16 -4 a 42.41 42.41 0 0 0 7.17 -3 a 14 14 0 0 0 2.74 -1.92 a 3.42 3.42 0 0 0 1.12 -1.68 a 2.41 2.41 0 0 0 -0.43 -1.61 a 11.07 11.07 0 0 0 -2 -2.4 a 28 28 0 0 0 -2.92 -2.31 l -1.76 -1.22 c -0.65 -0.46 -1.26 -0.94 -1.86 -1.43 a 59 59 0 0 1 -6.43 -6.27 c -2 -2.19 -3.79 -4.44 -5.54 -6.74 a 267 267 0 0 1 -18.55 -28.74 c -5.63 -9.85 -10.89 -19.86 -16 -30 s -9.91 -20.31 -14.57 -30.61 l -3.45 -7.76 L 417 124.48 l -0.42 -1 l -0.39 -0.88 c -0.25 -0.59 -0.54 -1.15 -0.82 -1.71 a 22.74 22.74 0 0 0 -1.89 -3.09 a 13 13 0 0 0 -2.2 -2.42 a 7 7 0 0 0 -2.31 -1.33 a 4.49 4.49 0 0 0 -2.22 -0.09 a 8.55 8.55 0 0 0 -4.59 3.32 a 17.85 17.85 0 0 0 -1.84 2.92 c -0.26 0.54 -0.51 1.07 -0.73 1.64 c -0.12 0.27 -0.22 0.56 -0.32 0.85 l -0.35 1 c -1.06 2.93 -2.23 5.47 -3.42 8.1 s -2.42 5.16 -3.67 7.7 c -5 10.18 -10.29 20.16 -15.77 30.05 s -11.17 19.66 -17.16 29.28 a 310.2 310.2 0 0 1 -19.39 28.11 a 90.46 90.46 0 0 1 -12 12.85 l -1.65 1.35 c -0.52 0.43 -1 0.85 -1.53 1.29 a 38 38 0 0 0 -2.79 2.65 a 12.42 12.42 0 0 0 -1.94 2.57 a 2.33 2.33 0 0 0 -0.28 0.76 c 0 0.11 0 0 0 0.09 a 4.57 4.57 0 0 0 1.7 1.35 a 25.15 25.15 0 0 0 3.36 1.51 c 2.46 0.92 5.11 1.72 7.79 2.52 c 5.36 1.58 10.84 3.16 16.25 5 q 4.06 1.37 8.08 2.94 c 1.34 0.53 2.67 1.07 4 1.63 c 0.64 0.27 1.36 0.57 2.1 0.94 a 19.66 19.66 0 0 1 2.18 1.24 a 11.85 11.85 0 0 1 4 4.13 a 8.64 8.64 0 0 1 1 3.24 a 9.11 9.11 0 0 1 -0.27 3.23 a 14.48 14.48 0 0 1 -2.42 4.85 a 29.32 29.32 0 0 1 -3.14 3.56 a 87.46 87.46 0 0 1 -14 10.47 c -4.85 3 -9.79 5.84 -14.76 8.55 c -9.94 5.42 -20 10.49 -29.91 15.72 c -5 2.62 -9.88 5.28 -14.63 8.12 c -2.37 1.42 -4.7 2.89 -6.88 4.46 a 22.06 22.06 0 0 0 -5.45 5.14 a 8 8 0 0 0 -0.76 1.39 a 5.36 5.36 0 0 0 -0.33 1.32 a 4.1 4.1 0 0 0 0.69 2.53 a 15.62 15.62 0 0 0 5.49 4.62 A 80.14 80.14 0 0 0 298.56 353 c 5.31 1.66 10.73 3.06 16.18 4.58 a 64.81 64.81 0 0 1 8.26 2.74 a 27.74 27.74 0 0 1 7.69 4.74 a 13.65 13.65 0 0 1 3 3.81 a 9.27 9.27 0 0 1 1 5 a 11.14 11.14 0 0 1 -1.54 4.7 a 19.09 19.09 0 0 1 -2.8 3.67 a 40.6 40.6 0 0 1 -6.81 5.54 a 83.78 83.78 0 0 1 -7.41 4.35 c -10.11 5.26 -20.76 9.16 -31.39 12.82 a 161.69 161.69 0 0 0 -15.52 6.37 A 74.57 74.57 0 0 0 255 420 a 32.17 32.17 0 0 0 -5.82 5.89 a 16.21 16.21 0 0 0 -3.19 7.52 a 13.61 13.61 0 0 0 1.59 8 A 20.29 20.29 0 0 0 252.95 447.85 Z" stroke-linecap="round" />
</g>
		<g transform="matrix(1 0 0 1 8.53 179.62)"  >
<path style="stroke: none; stroke-width: 1; stroke-dasharray: none; stroke-linecap: butt; stroke-dashoffset: 0; stroke-linejoin: miter; stroke-miterlimit: 4; fill: rgb(203,152,102); fill-rule: nonzero; opacity: 1;"  transform=" translate(-408.53, -479.62)" d="M 207.5 484.06 c 7.05 -5.11 15.14 -8.66 23.34 -11.63 a 177.13 177.13 0 0 1 25.29 -6.88 a 263.65 263.65 0 0 1 52.22 -4.49 h 3.28 l 3.28 0.09 l 6.56 0.19 l 6.55 0.39 c 2.18 0.13 4.37 0.26 6.54 0.48 c 4.35 0.39 8.71 0.74 13 1.28 l 6.51 0.75 l 6.49 0.91 c 17.3 2.5 34.41 6 51.36 10.19 l 12.62 3.2 c 4.18 1 8.34 2.18 12.55 3.06 c 8.38 2 16.82 3.63 25.29 5.13 a 353.5 353.5 0 0 0 51.17 5.47 c 17.11 0.32 34.36 -0.66 51 -4.7 a 118.55 118.55 0 0 0 24.21 -8.47 a 84.82 84.82 0 0 0 11.11 -6.49 a 47.55 47.55 0 0 0 9.69 -8.53 a 48.1 48.1 0 0 1 -9 9.45 a 85.1 85.1 0 0 1 -10.81 7.45 a 116.56 116.56 0 0 1 -24.23 10.24 a 165.66 165.66 0 0 1 -25.79 5.35 a 232.1 232.1 0 0 1 -26.27 1.71 c -8.77 0 -17.55 -0.24 -26.26 -1.09 c -2.18 -0.2 -4.37 -0.35 -6.54 -0.6 l -6.52 -0.78 c -4.36 -0.46 -8.67 -1.19 -13 -1.82 c -8.64 -1.37 -17.22 -3.09 -25.74 -5 c -4.28 -0.87 -8.5 -2 -12.75 -3 l -12.62 -3.11 q -25.06 -6.37 -50.58 -10.47 a 426.37 426.37 0 0 0 -51.3 -5.3 c -8.59 -0.42 -17.19 -0.29 -25.78 0 a 240.1 240.1 0 0 0 -25.68 2.24 a 186.57 186.57 0 0 0 -25.27 5.19 c -4.15 1.16 -8.26 2.49 -12.28 4.05 c -2 0.79 -4 1.6 -6 2.52 A 50.82 50.82 0 0 0 207.5 484.06 Z" stroke-linecap="round" />
</g>
		<g transform="matrix(1 0 0 1 8.26 222.27)"  >
<path style="stroke: none; stroke-width: 1; stroke-dasharray: none; stroke-linecap: butt; stroke-dashoffset: 0; stroke-linejoin: miter; stroke-miterlimit: 4; fill: rgb(203,152,102); fill-rule: nonzero; opacity: 1;"  transform=" translate(-408.26, -522.27)" d="M 374.32 502.55 a 48.15 48.15 0 0 0 1.24 14.35 c 1.15 4.52 3.29 8.64 6.49 11.35 a 18.5 18.5 0 0 0 5.51 3.14 a 39.06 39.06 0 0 0 6.41 1.82 a 65.78 65.78 0 0 0 13.68 1.12 a 72.9 72.9 0 0 0 13.72 -1.44 a 44.51 44.51 0 0 0 6.46 -1.85 a 17.75 17.75 0 0 0 5.51 -3.15 a 25.45 25.45 0 0 0 7.24 -11.17 a 52 52 0 0 0 1.9 -6.91 c 0.48 -2.37 0.83 -4.8 1.18 -7.25 a 55.16 55.16 0 0 1 0.64 7.42 a 40.11 40.11 0 0 1 -0.52 7.56 a 31.23 31.23 0 0 1 -2.19 7.5 a 24.37 24.37 0 0 1 -4.46 6.79 a 25.16 25.16 0 0 1 -6.61 5 a 39.72 39.72 0 0 1 -7.4 3 A 58.55 58.55 0 0 1 407.75 542 a 55 55 0 0 1 -15.47 -1.9 a 36.65 36.65 0 0 1 -7.46 -3 a 25.3 25.3 0 0 1 -6.6 -5 a 19.63 19.63 0 0 1 -2.5 -3.34 a 21.72 21.72 0 0 1 -1.79 -3.67 a 27.66 27.66 0 0 1 -1.65 -7.7 a 38.16 38.16 0 0 1 2 -14.87 Z" stroke-linecap="round" />
</g>
		<g transform="matrix(1 0 0 1 8.55 179.62)"  >
<path style="stroke: none; stroke-width: 8; stroke-dasharray: none; stroke-linecap: butt; stroke-dashoffset: 0; stroke-linejoin: miter; stroke-miterlimit: 4; fill: none; fill-rule: nonzero; opacity: 1;"  transform=" translate(-408.55, -479.62)" d="M 207.5 484.1 c 0 0 58.5 -43.1 211.1 -3.1 s 191 -16.9 191 -16.9" stroke-linecap="round" />
</g>
		<g transform="matrix(1 0 0 1 7.04 -20.68)"  >
<path style="stroke: none; stroke-width: 1; stroke-dasharray: none; stroke-linecap: butt; stroke-dashoffset: 0; stroke-linejoin: miter; stroke-miterlimit: 10; fill: none; fill-rule: nonzero; opacity: 1;"  transform=" translate(-407.04, -279.32)" d="M 252.95 447.85 s -30.81 -21.57 33.89 -44.68 s 46.22 -37 33.89 -41.6 s -59.32 -11.56 -42.37 -28.5 s 114 -52.38 81.66 -66.25 S 301.48 256 324.59 237.55 S 390.84 135.87 395.46 122 c 4.41 -13.24 16.95 -18.49 24.65 0 s 44.68 100.14 67.79 115.55 s -10.78 21.57 -26.19 24.65 s -20 33.89 33.89 49.3 s 47.76 40.06 27.73 44.68 s -63.17 4.62 -27.73 32.35 s 98.6 21.57 61.63 60.09" stroke-linecap="round" />
</g>
		<g transform="matrix(1 0 0 1 8.53 179.62)"  >
<path style="stroke: none; stroke-width: 1; stroke-dasharray: none; stroke-linecap: butt; stroke-dashoffset: 0; stroke-linejoin: miter; stroke-miterlimit: 4; fill: rgb(203,152,102); fill-rule: nonzero; opacity: 1;"  transform=" translate(-408.53, -479.62)" d="M 207.5 484.06 c 7.05 -5.11 15.14 -8.66 23.34 -11.63 a 177.13 177.13 0 0 1 25.29 -6.88 a 263.65 263.65 0 0 1 52.22 -4.49 h 3.28 l 3.28 0.09 l 6.56 0.19 l 6.55 0.39 c 2.18 0.13 4.37 0.26 6.54 0.48 c 4.35 0.39 8.71 0.74 13 1.28 l 6.51 0.75 l 6.49 0.91 c 17.3 2.5 34.41 6 51.36 10.19 l 12.62 3.2 c 4.18 1 8.34 2.18 12.55 3.06 c 8.38 2 16.82 3.63 25.29 5.13 a 353.5 353.5 0 0 0 51.17 5.47 c 17.11 0.32 34.36 -0.66 51 -4.7 a 118.55 118.55 0 0 0 24.21 -8.47 a 84.82 84.82 0 0 0 11.11 -6.49 a 47.55 47.55 0 0 0 9.69 -8.53 a 48.1 48.1 0 0 1 -9 9.45 a 85.1 85.1 0 0 1 -10.81 7.45 a 116.56 116.56 0 0 1 -24.23 10.24 a 165.66 165.66 0 0 1 -25.79 5.35 a 232.1 232.1 0 0 1 -26.27 1.71 c -8.77 0 -17.55 -0.24 -26.26 -1.09 c -2.18 -0.2 -4.37 -0.35 -6.54 -0.6 l -6.52 -0.78 c -4.36 -0.46 -8.67 -1.19 -13 -1.82 c -8.64 -1.37 -17.22 -3.09 -25.74 -5 c -4.28 -0.87 -8.5 -2 -12.75 -3 l -12.62 -3.11 q -25.06 -6.37 -50.58 -10.47 a 426.37 426.37 0 0 0 -51.3 -5.3 c -8.59 -0.42 -17.19 -0.29 -25.78 0 a 240.1 240.1 0 0 0 -25.68 2.24 a 186.57 186.57 0 0 0 -25.27 5.19 c -4.15 1.16 -8.26 2.49 -12.28 4.05 c -2 0.79 -4 1.6 -6 2.52 A 50.82 50.82 0 0 0 207.5 484.06 Z" stroke-linecap="round" />
</g>
		<g transform="matrix(1 0 0 1 8.26 222.27)"  >
<path style="stroke: none; stroke-width: 1; stroke-dasharray: none; stroke-linecap: butt; stroke-dashoffset: 0; stroke-linejoin: miter; stroke-miterlimit: 4; fill: rgb(203,152,102); fill-rule: nonzero; opacity: 1;"  transform=" translate(-408.26, -522.27)" d="M 374.32 502.55 a 48.15 48.15 0 0 0 1.24 14.35 c 1.15 4.52 3.29 8.64 6.49 11.35 a 18.5 18.5 0 0 0 5.51 3.14 a 39.06 39.06 0 0 0 6.41 1.82 a 65.78 65.78 0 0 0 13.68 1.12 a 72.9 72.9 0 0 0 13.72 -1.44 a 44.51 44.51 0 0 0 6.46 -1.85 a 17.75 17.75 0 0 0 5.51 -3.15 a 25.45 25.45 0 0 0 7.24 -11.17 a 52 52 0 0 0 1.9 -6.91 c 0.48 -2.37 0.83 -4.8 1.18 -7.25 a 55.16 55.16 0 0 1 0.64 7.42 a 40.11 40.11 0 0 1 -0.52 7.56 a 31.23 31.23 0 0 1 -2.19 7.5 a 24.37 24.37 0 0 1 -4.46 6.79 a 25.16 25.16 0 0 1 -6.61 5 a 39.72 39.72 0 0 1 -7.4 3 A 58.55 58.55 0 0 1 407.75 542 a 55 55 0 0 1 -15.47 -1.9 a 36.65 36.65 0 0 1 -7.46 -3 a 25.3 25.3 0 0 1 -6.6 -5 a 19.63 19.63 0 0 1 -2.5 -3.34 a 21.72 21.72 0 0 1 -1.79 -3.67 a 27.66 27.66 0 0 1 -1.65 -7.7 a 38.16 38.16 0 0 1 2 -14.87 Z" stroke-linecap="round" />
</g>
		<g transform="matrix(1 0 0 1 7.95 -234.19)"  >
<path style="stroke: none; stroke-width: 1; stroke-dasharray: none; stroke-linecap: butt; stroke-dashoffset: 0; stroke-linejoin: miter; stroke-miterlimit: 4; fill: rgb(255,252,249); fill-rule: nonzero; opacity: 0;"  transform=" translate(-407.95, -65.81)" d="M 421 53.27 c 5 0.83 10.08 1.52 15.15 2.13 l 3.8 0.45 l 1.9 0.21 c 0.33 0 0.6 0.06 1 0.12 a 2.41 2.41 0 0 1 1.27 0.66 a 2.52 2.52 0 0 1 0.56 2.76 a 3.42 3.42 0 0 1 -0.78 1.07 l -0.66 0.69 l -2.65 2.77 c -1.78 1.83 -3.54 3.68 -5.35 5.48 l -2.7 2.71 L 429.81 75 l -0.69 0.67 l -0.34 0.33 l 0 0 h 0 a 0.14 0.14 0 0 0 0 -0.08 s 0 -0.07 0 0 l 0 0.24 l 0.07 0.47 l 0.57 3.78 c 0.4 2.52 0.71 5 1.06 7.57 l 0.94 7.59 l 0.22 1.9 c 0 0.06 0 0.19 0 0.34 a 2.21 2.21 0 0 1 0 0.43 a 2.72 2.72 0 0 1 -0.21 0.84 a 2.85 2.85 0 0 1 -2.65 1.75 a 2.57 2.57 0 0 1 -0.82 -0.14 a 3.12 3.12 0 0 1 -0.65 -0.3 l -1.64 -1 l -6.58 -3.91 l -6.63 -3.81 l -3.34 -1.86 l -0.42 -0.23 l -0.21 -0.12 l -0.14 -0.07 a 1 1 0 0 0 -0.59 0 a 1.15 1.15 0 0 0 -0.31 0.12 l -0.43 0.22 l -0.85 0.44 c -2.27 1.17 -4.54 2.31 -6.79 3.52 s -4.51 2.38 -6.74 3.61 l -3.36 1.83 l -0.84 0.46 a 3.07 3.07 0 0 1 -1.28 0.44 a 2.68 2.68 0 0 1 -2.84 -3 l 0.15 -1 l 0.29 -1.89 l 0.57 -3.78 l 1.18 -7.56 l 1.24 -7.52 a 0.13 0.13 0 0 0 0 0.08 l 0 0 l -0.1 -0.09 l -0.17 -0.17 l -1.37 -1.34 l -2.73 -2.68 l -10.93 -10.7 l -0.34 -0.33 a 4 4 0 0 1 -0.64 -0.84 a 3.63 3.63 0 0 1 -0.43 -2.12 a 3.68 3.68 0 0 1 2.64 -3.17 l 0.52 -0.11 l 0.25 0 l 0.47 -0.06 l 0.95 -0.12 l 1.9 -0.25 l 7.58 -1 l 7.6 -0.9 l 1.9 -0.23 l 0.95 -0.11 c 0.24 0 0.11 0 0.09 0 l -0.09 0.05 l -0.07 0.08 l 0 0 l 0.09 -0.16 l 0.46 -0.84 l 0.91 -1.68 c 2.41 -4.5 4.95 -8.92 7.51 -13.34 l 1 -1.66 l 0.48 -0.83 l 0.24 -0.41 l 0.13 -0.23 a 3.49 3.49 0 0 1 0.22 -0.33 a 2.66 2.66 0 0 1 2.83 -0.9 a 2.52 2.52 0 0 1 1.26 0.84 a 2.85 2.85 0 0 1 0.37 0.62 l 0.18 0.44 q 1.45 3.54 3 7.06 c 1 2.36 2 4.68 3.06 7 c 0.51 1.17 1.06 2.32 1.59 3.48 l 0.8 1.74 a 2.12 2.12 0 0 0 0.45 0.75 A 1.42 1.42 0 0 0 421 53.27 Z m -0.06 0.39 a 1.82 1.82 0 0 1 -1 -0.46 a 2.52 2.52 0 0 1 -0.56 -0.86 l -0.84 -1.72 c -0.56 -1.14 -1.11 -2.3 -1.69 -3.43 c -1.17 -2.27 -2.29 -4.56 -3.5 -6.81 s -2.39 -4.51 -3.6 -6.76 l -0.23 -0.42 a 0.8 0.8 0 0 0 -0.14 -0.18 a 0.58 0.58 0 0 0 -0.33 -0.15 a 0.56 0.56 0 0 0 -0.57 0.28 L 407 36.48 c -2.09 4.66 -4.2 9.31 -6.45 13.88 l -0.83 1.72 l -0.42 0.86 l -0.13 0.27 a 3.57 3.57 0 0 1 -2 1.67 a 4.26 4.26 0 0 1 -0.84 0.18 l -0.95 0.13 l -1.89 0.27 L 386 56.53 l -7.58 1 l -3.49 0.44 a 0.45 0.45 0 0 0 0.34 -0.4 a 0.51 0.51 0 0 0 -0.07 -0.28 s -0.06 -0.08 -0.07 -0.08 l 0.33 0.34 l 10.65 11 l 2.66 2.75 l 1.33 1.37 l 0.4 0.42 a 3.41 3.41 0 0 1 0.53 0.84 a 3.36 3.36 0 0 1 0.24 1.95 c -0.53 2.56 -1 5 -1.57 7.52 L 388 90.85 l -0.83 3.73 l -0.42 1.87 l -0.2 0.9 a 0.5 0.5 0 0 0 0 0.3 a 0.58 0.58 0 0 0 0.52 0.37 a 6.28 6.28 0 0 0 1.38 -0.58 l 3.46 -1.62 q 3.47 -1.61 6.9 -3.3 c 2.3 -1.1 4.57 -2.26 6.85 -3.39 l 0.86 -0.43 l 0.43 -0.21 a 2.55 2.55 0 0 1 0.57 -0.22 a 2.21 2.21 0 0 1 1.29 0.08 l 0.29 0.13 l 0.21 0.11 l 0.42 0.23 l 3.37 1.81 l 6.8 3.51 l 6.85 3.41 l 1.71 0.85 c 0.19 0.09 0.15 0.07 0.22 0.08 a 0.25 0.25 0 0 0 0.12 0 a 0.42 0.42 0 0 0 0.21 -0.1 a 0.33 0.33 0 0 0 0.1 -0.19 a 0.2 0.2 0 0 0 0 -0.09 a 0.1 0.1 0 0 0 0 0 l 0 -0.13 L 428.74 96 l -1.42 -7.52 c -0.43 -2.51 -0.9 -5 -1.29 -7.54 l -0.6 -3.78 l -0.08 -0.47 l 0 -0.24 a 3.75 3.75 0 0 1 0 -0.45 a 3.37 3.37 0 0 1 0.52 -1.9 a 3.33 3.33 0 0 1 0.3 -0.4 a 3.73 3.73 0 0 1 0.3 -0.3 l 0.35 -0.32 l 0.7 -0.65 l 2.81 -2.59 l 2.86 -2.54 c 1.9 -1.71 3.84 -3.36 5.77 -5 l 2.91 -2.49 a 12.91 12.91 0 0 0 1.15 -1 a 0.7 0.7 0 0 0 -0.06 -0.79 a 0.73 0.73 0 0 0 -0.37 -0.26 c -0.23 -0.06 -0.6 -0.13 -0.89 -0.2 l -1.87 -0.4 L 436 56.39 C 431 55.39 426 54.45 420.95 53.66 Z" stroke-linecap="round" />
</g>
		<g transform="matrix(1 0 0 1 8.53 -234.23)"  >
<path style="stroke: none; stroke-width: 1; stroke-dasharray: none; stroke-linecap: butt; stroke-dashoffset: 0; stroke-linejoin: miter; stroke-miterlimit: 4; fill: rgb(200,149,104); fill-rule: nonzero; opacity: 1;"  transform=" translate(-408.53, -65.77)" d="M 408.12 83.45 l -17.78 8.94 l 3.72 -19.55 l -14 -14.15 l 19.74 -2.5 l 9.13 -17.68 l 8.48 18 L 437 59.73 l -14.5 13.63 l 3 19.67 Z" stroke-linecap="round" />
</g>
		<g transform="matrix(1 0 0 1 -400 -300)"  >
</g>
</g>
</g>
</svg>